<?xml version="1.0" encoding="utf-8"?>
<!-- Generator: Adobe Illustrator 26.5.0, SVG Export Plug-In . SVG Version: 6.00 Build 0)  -->
<svg version="1.0" id="Livello_1" xmlns="http://www.w3.org/2000/svg" xmlns:xlink="http://www.w3.org/1999/xlink" x="0px" y="0px"
	 viewBox="0 0 3786.67 2762.67" style="enable-background:new 0 0 3786.67 2762.67;" xml:space="preserve">
<style type="text/css">
	.st0{fill:#EDCF95;}
	.st1{fill:#F39200;}
	.st2{fill:#F29106;}
	.st3{font-family:'Arial-BoldMT';}
	.st4{font-size:274.4989px;}
</style>
<g>
	<g>
		<polygon class="st0" points="2021.37,1957.6 2022.46,1957.64 2000.62,1955.75 1992.37,1935.17 1984.12,1955.75 1961.86,1957.11 
			1962.86,1957.06 1961.86,1957.11 1978.89,1972.08 1973.6,1993.69 1973.6,1993.69 1973.6,1993.69 1992.53,1981.98 2010.76,1993.69 
			2010.76,1993.69 2010.76,1993.69 2005.91,1972.23 2022.46,1957.64 		"/>
	</g>
</g>
<g>
	<g>
		<polygon class="st0" points="1917.39,1957.63 1918.45,1957.68 1896.61,1955.75 1888.38,1935.17 1880.12,1955.75 1857.85,1957.12 
			1858.82,1957.08 1857.85,1957.12 1874.86,1972.08 1869.57,1993.69 1869.57,1993.69 1869.57,1993.69 1888.46,1982.02 
			1906.8,1993.69 1906.8,1993.69 1906.8,1993.69 1901.88,1972.26 1918.45,1957.68 		"/>
	</g>
</g>
<g>
	<g>
		<polygon class="st0" points="1646.5,1957.6 1645.42,1957.64 1667.25,1955.75 1675.52,1935.17 1683.75,1955.75 1706.01,1957.11 
			1705.09,1957.06 1706.01,1957.11 1688.99,1972.08 1694.33,1993.69 1694.33,1993.69 1694.33,1993.69 1675.37,1981.98 
			1657.11,1993.69 1657.11,1993.69 1657.11,1993.69 1661.97,1972.23 1645.42,1957.64 		"/>
	</g>
</g>
<g>
	<g>
		<polygon class="st0" points="1542.46,1957.6 1541.38,1957.64 1563.24,1955.75 1571.52,1935.17 1579.71,1955.75 1601.98,1957.11 
			1601.05,1957.06 1601.98,1957.11 1584.98,1972.08 1590.31,1993.69 1590.31,1993.69 1590.31,1993.69 1571.38,1981.98 
			1553.09,1993.69 1553.09,1993.69 1553.09,1993.69 1557.95,1972.23 1541.38,1957.64 		"/>
	</g>
</g>
<g>
	<g>
		<polygon class="st0" points="1750.51,1957.63 1749.4,1957.68 1771.32,1955.75 1779.53,1935.17 1787.76,1955.75 1810.02,1957.12 
			1809.1,1957.08 1810.02,1957.12 1793.06,1972.08 1798.34,1993.69 1798.34,1993.69 1798.34,1993.69 1779.46,1982.02 
			1761.14,1993.69 1761.14,1993.69 1761.14,1993.69 1766.04,1972.26 1749.4,1957.68 		"/>
	</g>
</g>
<g>
	<g>
		<path d="M1442.35,2478.42c0.23,0.26-0.44,0.26-1.79,0.09c0.75,0.15,1.52,0.3,2.28,0.45
			C1442.67,2478.78,1442.51,2478.6,1442.35,2478.42z"/>
	</g>
</g>
<g>
	<g>
		<path class="st1" d="M2819.75,1956.97c-9.94,9.95-26.07,9.94-36.02,0c-8.7-8.7-9.79-22.12-3.27-32c0-0.01,0.01-0.02,0.01-0.02
			c158.96-358.2,91.6-792.53-202.08-1086.21c-163.63-163.63-370.91-256.99-584.34-280.11c0,0-0.01,0-0.02,0
			c-0.73-0.03-24-0.81-35.05,9.71c0,0,0,0-0.01,0.01c-3.91,4.81-7.45,10.57-8.25,16.37c-0.02,0.07-0.02,0.14-0.03,0.21
			c-0.16,1.23-0.13,2.47,0.04,3.73c0.9,6.72,6.02,13.71,10.91,19.02l0.02,0.02c4.76,5.17,9.29,8.73,9.49,8.88v0
			c7.74,0.85,15.47,1.78,23.18,2.81c0.03,0.01,0.04,0.01,0.07,0.01c198.29,26.55,383.59,114.13,530.78,273.09l-0.36,0.37
			c6.37,8.77,5.61,21.12-2.31,29.03c-7.81,7.82-19.97,8.65-28.72,2.52c-0.52-0.36-1.02-0.75-1.52-1.17
			c-1.17-1.25-2.36-2.5-3.55-3.74c-141.7-147.91-324.35-234.07-513.67-257.12c-0.03,0-0.05-0.01-0.08-0.01c-0.02,0-0.05-0.01-0.08,0
			c-0.04-0.01-0.08-0.01-0.12-0.01c-2.74-0.18-25.04-1.36-44.42,8.41c-1.17,0.58-2.33,1.21-3.47,1.88
			c-0.04,0.02-0.07,0.05-0.11,0.07c-0.38,0.2-0.76,0.41-1.14,0.62c-0.03,0.01-0.05,0.03-0.08,0.03
			c-23.24,12.71-47.15,27.14-55.23,56.67c-22.23,81.26-80.53,141.32-196.97,156.32c-176.73,22.78-422.75-98.96-433.69-213.32
			c-11.52-120.4,206.14-295.78,382.83-318.56c116.46-15.01,184.67,28.76,221.72,102.35c19.05,37.88,70.88,37.44,103.84,46.45
			c242.66,14.03,481.28,113.74,666.68,299.13c314.64,314.64,389.77,764.8,210.88,1145.49l-0.02,0.04
			C2824.34,1951.25,2822.4,1954.33,2819.75,1956.97z"/>
	</g>
</g>
<g>
	<g>
		<path class="st1" d="M2546.65,670.77c-1.15,0.62-2.31,1.25-3.47,1.88C2544.33,671.99,2545.48,671.36,2546.65,670.77z"/>
	</g>
</g>
<g>
	<g>
		<path class="st2" d="M1862.57,723.05v0.3c-0.63-0.02-1.27-0.03-1.9-0.05C1861.31,723.25,1861.95,723.17,1862.57,723.05z"/>
	</g>
</g>
<g>
	<g>
		<path class="st1" d="M1860.67,723.3c-0.66,0.06-1.33,0.09-2.01,0.09c-1.07,0-2.11-0.08-3.14-0.22
			C1857.23,723.21,1858.95,723.25,1860.67,723.3z"/>
	</g>
</g>
<g>
	<g>
		<path class="st1" d="M1442.84,2478.95c-0.76-0.15-1.53-0.29-2.28-0.45c1.34,0.18,2.02,0.17,1.79-0.09
			C1442.51,2478.6,1442.67,2478.78,1442.84,2478.95z"/>
	</g>
</g>
<g>
	<g>
		<path class="st1" d="M2249.25,2410.74c-1.44-13.03-17.34-21.99-35.6-19.97l-406.27,44.81c-18.31,2.02-34.31-6.94-35.75-20.06
			c-1.46-13.16,12.2-25.41,30.52-27.43l406.27-44.82c18.24-2.01,31.83-14.18,30.39-27.23l-0.03-0.27
			c-1.45-13.05-17.36-21.98-35.6-19.98l-406.28,44.82c-18.32,2.02-34.3-6.97-35.76-20.11c-1.45-13.1,12.2-25.36,30.52-27.39
			l406.27-44.81c18.24-2.02,31.83-14.21,30.38-27.25l-0.03-0.27c-1.44-13.02-17.35-21.96-35.61-19.96l-406.24,44.83
			c-18.33,2.03-34.33-6.96-35.77-20.08c-1.44-13.14,12.21-25.39,30.53-27.4l406.27-44.84c18.24-2,31.82-14.21,30.39-27.23
			c-1.38-12.39-16.47-20.87-33.72-18.97l-438.24,48.35c-133.93,14.77-185.3,40.58-222.44,86.68c-3.37,4.18-6.57,4.59-9.6,4.07
			c-0.2-0.29-0.3-0.45-0.3-0.45c-148.54-34.57-289.33-109.12-405.02-222.98l-0.28,0.28c-8.74-6.07-20.85-5.21-28.64,2.58
			c-7.79,7.8-8.66,19.9-2.58,28.64l-0.34,0.34c111.54,109.89,245.3,185.04,387.23,224.88c0,0,22.27,10.79,12.73,46.76
			c-3.82,14.38-9.09,23.54-14.05,29.38c-5.2,3.11-15.71,5.82-36.85,3.01h-0.01c-142.75-45.93-277.02-125.55-390.34-238.87
			c-281.77-281.78-355.21-693-220.29-1042.24l-0.03,0l-0.21-0.11c4.81-9.57,3.19-21.58-4.84-29.61
			c-10.02-10.01-26.21-10.05-36.18-0.1c-2.09,2.09-3.74,4.46-4.96,6.99l-0.05-0.02c-153.25,372.03-72.05,799.13,230.22,1101.41
			c140.27,140.27,311.02,231.5,490.94,273.66c24.6,6.14,44.75,15.87,45.55,16.26c0.01,0.01,0.01,0.01,0.01,0.01
			c42.18,37.78,122,52.63,246.65,38.87l438.24-48.34C2237.73,2434.68,2250.63,2423.13,2249.25,2410.74z M1525,2437.34
			c1.34,0.18,2.02,0.17,1.79-0.09c0.16,0.18,0.32,0.36,0.49,0.54C1526.52,2437.64,1525.76,2437.49,1525,2437.34z"/>
	</g>
</g>
<g>
	<g>
		<path class="st1" d="M1934.66,1017.29c2.56-10.24,3.88-19.91,3.88-27.98c0-45.78-37.24-83.03-83.01-83.03
			c-45.78,0-83.02,37.24-83.02,83.03c0,8.07,1.31,17.73,3.88,27.98c-153.48,30.79-275.21,149.34-310.62,301.07h779.72
			C2210.3,1166.33,2088.41,1048.13,1934.66,1017.29z M1875.23,1009.93c-6.54-0.32-13.1-0.49-19.71-0.49
			c-6.62,0-13.18,0.18-19.71,0.49c-2.43-7.07-4.01-14.29-4.01-20.62c0-13.08,10.64-23.72,23.73-23.72
			c13.07,0,23.72,10.64,23.72,23.72C1879.24,995.64,1877.65,1002.86,1875.23,1009.93z M2255.8,1349.59h-4.39
			c-0.07-0.41-0.12-0.83-0.2-1.25l-791.25,0.82c-0.11,0.68-0.21,0.56-0.32,1.25l-4.41-0.82c-16.37,0-29.65,14.1-29.65,30.47
			c0,16.38,13.28,29.65,29.65,29.65h800.57c16.38,0,29.65-13.27,29.65-29.65C2285.45,1363.69,2272.18,1349.59,2255.8,1349.59z"/>
	</g>
</g>
<text transform="matrix(1 0 0 1 874.6819 1746.7377)" class="st3 st4">RESTAURANT</text>
</svg>
